<?xml version="1.0" encoding="utf-8"?>
<!-- Generator: Adobe Illustrator 19.2.1, SVG Export Plug-In . SVG Version: 6.00 Build 0)  -->
<svg version="1.1" xmlns="http://www.w3.org/2000/svg" xmlns:xlink="http://www.w3.org/1999/xlink" x="0px" y="0px"
	 viewBox="0 0 125 125" style="enable-background:new 0 0 125 125;" xml:space="preserve">
<style type="text/css">
	.st0{fill:#FFCE53;}
	.st1{fill:#43B530;}
	.st2{fill:#107510;}
	.st3{fill:#1A8E1C;}
	.st4{fill:#33363A;}
	.st5{fill:#80EDAC;}
	.st6{fill:#6ADB9A;}
	.st7{fill:#47C67B;}
	.st8{fill:#BA503A;}
	.st9{fill:#AD2707;}
	.st10{fill:#FFFFFF;}
	.st11{fill:#9CFFC4;}
</style>
<g id="Layer_1">
	<path class="st0" d="M10,0h105c5.5,0,10,4.5,10,10v105c0,5.5-4.5,10-10,10H10c-5.5,0-10-4.5-10-10V10C0,4.5,4.5,0,10,0z"/>
	<g>
		<g>
			<g>
				<path class="st1" d="M97.5,44.5c13.2,13.2,13.2,25.6,0,38.7c-13.2,13.2-56.7,13.2-69.9,0c-13.2-13.2-13.2-25.6,0-38.7
					C62.4,9.7,62.6,9.7,97.5,44.5z"/>
			</g>
			<g>
				<path class="st2" d="M27.5,49.2c-5.8,5.8-9,11.4-9.7,17c0.7,5.6,4,11.2,9.7,17c13.2,13.2,56.7,13.2,69.9,0
					c5.8-5.8,9-11.4,9.7-17c-0.7-5.6-4-11.2-9.7-17C62.6,14.4,62.4,14.4,27.5,49.2z"/>
			</g>
			<g>
				<path class="st3" d="M27.5,49.2c-3.6,3.6-6.2,7.1-7.8,10.6c1.6,3.5,4.2,7,7.8,10.6c13.2,13.2,56.7,13.2,69.9,0
					c3.6-3.6,6.2-7.1,7.8-10.6c-1.6-3.5-4.2-7-7.8-10.6C62.6,14.4,62.4,14.4,27.5,49.2z"/>
			</g>
			<g>
				<path class="st4" d="M62.5,94.2C62.5,94.2,62.5,94.2,62.5,94.2c-15.7,0-29.4-3.9-35.7-10.2c-6.9-6.9-10.2-13.4-10.2-20.1
					c0-6.7,3.3-13.3,10.2-20.1c17.6-17.6,26.4-26.4,35.7-26.4s18.1,8.8,35.7,26.4c6.9,6.9,10.2,13.4,10.2,20.1
					c0,6.7-3.3,13.3-10.2,20.1C91.9,90.2,78.2,94.2,62.5,94.2z M62.5,19.4c-8.4,0-17.6,9.2-34.2,25.8c-6.4,6.4-9.6,12.5-9.6,18.6
					c0,6.1,3.1,12.2,9.6,18.6c5.9,5.9,19,9.6,34.2,9.6c15.2,0,28.3-3.7,34.2-9.6c6.4-6.4,9.6-12.5,9.6-18.6c0-6.1-3.1-12.2-9.6-18.6
					l0,0C80.1,28.6,70.9,19.4,62.5,19.4z"/>
			</g>
		</g>
		<g>
			<g>
				<path class="st1" d="M78.9,44.5C85,57.6,85,70,78.9,83.2c-6.2,13.2-26.6,13.2-32.7,0C40,70,40,57.6,46.1,44.5
					C62.4,9.7,62.6,9.7,78.9,44.5z"/>
			</g>
			<g>
				<path class="st3" d="M47.9,49.2c-2.7,5.8-6,11.4-6.3,17c0.3,5.6,1.9,11.2,4.6,17c6.2,13.2,26.6,13.2,32.7,0
					c2.7-5.8,4.2-11.4,4.6-17c-0.3-5.6-3.6-11.2-6.3-17C60.8,14.4,64.2,14.4,47.9,49.2z"/>
			</g>
			<g>
				<path class="st4" d="M62.5,94.2C62.5,94.2,62.5,94.2,62.5,94.2c-7.7,0-14.3-4-17.3-10.5c-6.3-13.5-6.3-26.1,0-39.6
					c8.6-18.3,12.5-26.7,17.3-26.7l0,0c4.8,0,8.7,8.4,17.3,26.7c6.3,13.5,6.3,26.1,0,39.6C76.8,90.1,70.2,94.2,62.5,94.2z
					 M62.5,19.4c-3.5,0-7.9,9.6-15.4,25.5c-6,12.9-6,24.9,0,37.8c2.7,5.7,8.6,9.3,15.4,9.3c6.8,0,12.7-3.5,15.4-9.3
					c6-12.9,6-24.9,0-37.8l0,0C70.4,29,66,19.4,62.5,19.4z"/>
			</g>
		</g>
		<g>
			<path class="st5" d="M97.8,80.3c0,14.8-15.8,26.8-35.3,26.8c-19.5,0-35.3-12-35.3-26.8c0-14.8,15.8-32.6,35.3-32.6
				C82,47.7,97.8,65.5,97.8,80.3z"/>
		</g>
		<g>
			<path class="st6" d="M97.8,80.3c0,14.8-15.8,26.8-35.3,26.8c-19.5,0-35.3-12-35.3-26.8c0-14.8,15.8-25,35.3-25
				C82,55.3,97.8,65.5,97.8,80.3z"/>
		</g>
		<g>
			<path class="st5" d="M70,82.5c0,1-3.4,1.2-7.5,1.2S55,83.5,55,82.5c0-1,3.4-3.6,7.5-3.6S70,81.5,70,82.5z"/>
		</g>
		<g>
			<path class="st7" d="M97.8,80.3c0,14.8-15.8,26.8-35.3,26.8c-19.5,0-35.3-12-35.3-26.8c0-14.8,4.5,13.1,35.3,13.1
				S97.8,65.5,97.8,80.3z"/>
		</g>
		<g>
			<path class="st8" d="M72.2,90.8c0,2.8-4.4,5.1-9.7,5.1s-9.7-2.3-9.7-5.1"/>
		</g>
		<g>
			<path class="st4" d="M62.5,108.3c-20,0-36.4-12.5-36.4-27.9c0-15.3,16.2-33.7,36.4-33.7s36.4,18.4,36.4,33.7
				C98.9,95.7,82.5,108.3,62.5,108.3z M62.5,48.8c-18.9,0-34.2,17.2-34.2,31.5c0,14.2,15.3,25.8,34.2,25.8s34.2-11.6,34.2-25.8
				C96.7,66.1,81.4,48.8,62.5,48.8z"/>
		</g>
		<g>
			<path class="st9" d="M50.9,77.6c0,3.2-2.6,5.8-5.8,5.8c-3.2,0-5.8-2.6-5.8-5.8c0-3.2,2.6-5.8,5.8-5.8
				C48.3,71.8,50.9,74.4,50.9,77.6z"/>
		</g>
		<g>
			<circle class="st10" cx="42.3" cy="75.7" r="2.4"/>
		</g>
		<path class="st4" d="M45.1,70.7c-2.3,0-4.4,1.2-5.6,2.9c-0.1,0.1-0.2,0.2-0.2,0.4c-0.6,1-1,2.3-1,3.6c0,3.8,3.1,6.8,6.8,6.8
			c3.8,0,6.8-3.1,6.8-6.8S48.9,70.7,45.1,70.7z M45.1,82.3c-2,0-3.6-1.2-4.3-2.9c0.5,0,1.1-0.1,1.8-0.3c0.2,0,0.5-0.1,0.7-0.1
			c0.6-0.1,1.2-0.2,1.9-0.2c1.7,0,3.3,0.6,4.3,0.6C48.8,81.1,47.1,82.3,45.1,82.3z"/>
		<circle class="st10" cx="42.3" cy="75.7" r="1.3"/>
		<g>
			<path class="st9" d="M85.6,77.6c0,3.2-2.6,5.8-5.8,5.8s-5.8-2.6-5.8-5.8c0-3.2,2.6-5.8,5.8-5.8C83,71.8,85.6,74.4,85.6,77.6z"/>
		</g>
		<g>
			<circle class="st10" cx="77" cy="75.7" r="2.4"/>
		</g>
		<path class="st4" d="M79.9,70.7c-2.3,0-4.4,1.2-5.6,2.9c-0.1,0.1-0.1,0.2-0.2,0.3c-0.6,1-1,2.3-1,3.6c0,3.8,3.1,6.8,6.8,6.8
			c3.8,0,6.8-3.1,6.8-6.8S83.6,70.7,79.9,70.7z M79.9,82.3c-2,0-3.6-1.2-4.3-2.9c0.5,0,1.1-0.1,1.8-0.3c0.2,0,0.5-0.1,0.7-0.1
			c0.6-0.1,1.2-0.2,1.9-0.2c1.7,0,3.3,0.6,4.3,0.6C83.5,81.1,81.8,82.3,79.9,82.3z"/>
		<path class="st10" d="M77,74.4c-0.7,0-1.3,0.6-1.3,1.3c0,0.7,0.6,1.3,1.3,1.3c0.7,0,1.3-0.6,1.3-1.3C78.3,75,77.7,74.4,77,74.4z"
			/>
		<g>
			<g>
				<path class="st4" d="M60.7,87.3c-0.3,0-0.6-0.1-0.8-0.3l-1.1-1.1c-0.4-0.4-0.4-1.1,0-1.5c0.4-0.4,1.1-0.4,1.5,0l1.1,1.1
					c0.4,0.4,0.4,1.1,0,1.5C61.3,87.2,61,87.3,60.7,87.3z"/>
			</g>
			<g>
				<path class="st4" d="M64.3,87.3c-0.3,0-0.5-0.1-0.7-0.3c-0.4-0.4-0.5-1.1,0-1.5l1.1-1.1c0.4-0.4,1.1-0.5,1.5,0
					c0.4,0.4,0.5,1.1,0,1.5L65.1,87C64.8,87.2,64.6,87.3,64.3,87.3z"/>
			</g>
		</g>
		<g>
			<g>
				<g>
					<path class="st11" d="M40.7,57.9c1.9-1.3,3.8-2.2,5.8-2.7c0.3-1.8,0-3.5-0.9-4.8c-2.1-3-6.7-3.4-11.2-1.5
						c-3.3,3.6-4.4,8.1-2.4,11c1,1.4,2.5,2.2,4.2,2.5C37.3,60.8,38.8,59.2,40.7,57.9z"/>
				</g>
				<g>
					<path class="st5" d="M42.9,52.3c-1.9-2.6-5.7-3.3-9.8-2c-2.4,3.3-3,7.1-1.2,9.6c0.8,1.1,2,1.9,3.4,2.3c0.8-0.9,1.9-0.1,2.9-0.9
						c0.3-0.2,0.4-1.9,0.7-2.1c0.5-0.5,1.1-0.9,1.6-1.3c1.1-0.8,2.2-1.4,3.3-1.8C44,54.7,43.7,53.4,42.9,52.3z"/>
				</g>
				<g>
					<path class="st4" d="M36.2,63.5c-0.1,0-0.1,0-0.2,0c-2.1-0.4-3.8-1.4-4.9-3c-2.3-3.3-1.4-8.3,2.5-12.4c0.1-0.1,0.2-0.2,0.4-0.3
						c5.1-2.2,10.1-1.5,12.5,1.9c1.1,1.5,1.5,3.5,1.1,5.6c-0.1,0.6-0.7,1-1.2,0.9c-0.6-0.1-1-0.7-0.9-1.2c0.3-1.6,0-3-0.8-4
						c-1.7-2.4-5.6-2.9-9.7-1.2c-2.9,3.2-3.8,7.1-2.1,9.5c0.8,1.1,2,1.8,3.5,2.1c0.6,0.1,1,0.7,0.9,1.2
						C37.2,63.2,36.7,63.5,36.2,63.5z"/>
				</g>
			</g>
			<g>
				<g>
					<path class="st11" d="M84.3,57.9c-1.9-1.3-3.8-2.2-5.8-2.7c-0.3-1.8,0-3.5,0.9-4.8c2.1-3,6.7-3.4,11.2-1.5
						c3.3,3.6,4.4,8.1,2.4,11c-1,1.4-2.5,2.2-4.2,2.5C87.7,60.8,86.2,59.2,84.3,57.9z"/>
				</g>
				<g>
					<path class="st5" d="M82.1,52.3c1.9-2.6,5.7-3.3,9.8-2c2.4,3.3,3,7.1,1.2,9.6c-0.8,1.1-2,1.9-3.4,2.3c-0.8-0.9-1.9-0.1-2.9-0.9
						c-0.3-0.2-0.4-1.9-0.7-2.1c-0.5-0.5-1.1-0.9-1.6-1.3c-1.1-0.8-2.2-1.4-3.3-1.8C81,54.7,81.3,53.4,82.1,52.3z"/>
				</g>
				<g>
					<path class="st4" d="M88.8,63.5c-0.5,0-1-0.4-1.1-0.9c-0.1-0.6,0.3-1.1,0.9-1.2c1.6-0.3,2.8-1,3.5-2.1c1.7-2.4,0.8-6.3-2.1-9.5
						c-4-1.7-8-1.2-9.7,1.2c-0.8,1.1-1,2.5-0.8,4c0.1,0.6-0.3,1.1-0.9,1.2c-0.6,0.1-1.1-0.3-1.2-0.9c-0.4-2.1,0-4.1,1.1-5.6
						c2.3-3.3,7.4-4.1,12.5-1.9c0.1,0.1,0.3,0.1,0.4,0.3c3.8,4.1,4.8,9.1,2.4,12.4c-1.1,1.6-2.8,2.6-4.9,3
						C88.9,63.5,88.9,63.5,88.8,63.5z"/>
				</g>
			</g>
		</g>
		<g>
			<path class="st7" d="M57.9,66.4c-3,0-5.4-2.4-5.4-5.4c0-3,3.8-4.1,6.8-4.1s4.1,1.1,4.1,4.1C63.3,63.9,60.9,66.4,57.9,66.4z"/>
		</g>
		<g>
			<circle class="st7" cx="68.6" cy="64.4" r="1.9"/>
		</g>
		<g>
			<circle class="st7" cx="76.1" cy="63" r="1.4"/>
		</g>
		<g>
			<circle class="st7" cx="66.3" cy="74.7" r="0.9"/>
		</g>
		<g>
			<circle class="st7" cx="49.9" cy="64.8" r="1.8"/>
		</g>
		<g>
			<polyline class="st10" points="46.6,89.7 42.9,91.8 42.7,87.6 			"/>
		</g>
		<g>
			<polyline class="st10" points="78.4,89.7 82.1,91.8 82.3,87.6 			"/>
		</g>
		<path class="st4" d="M84.6,83.5c-0.5-0.3-1.2,0-1.4,0.5c0,0.1-2.6,5-11.1,4.9c-5.8-0.1-8.4,1.1-9.6,2.2c-1.2-1.1-3.9-2.3-9.6-2.2
			c-8.4,0.2-11-4.6-11.1-4.9c-0.3-0.5-0.9-0.7-1.4-0.5c-0.5,0.3-0.8,0.9-0.5,1.4c0,0.1,0.6,1.1,1.8,2.3c-0.1,0.1-0.1,0.3-0.1,0.5
			l0.3,4.2c0,0.4,0.2,0.7,0.6,0.9c0.2,0.1,0.3,0.1,0.5,0.1c0.2,0,0.4,0,0.5-0.1l3.6-2.1c0.1-0.1,0.2-0.2,0.3-0.3
			c1.2,0.3,2.7,0.6,4.3,0.6c0.1,3.4,4.8,6,10.8,6c6,0,10.7-2.6,10.8-6c1.6-0.1,3-0.3,4.3-0.6c0.1,0.1,0.2,0.2,0.3,0.3l3.6,2.1
			c0.2,0.1,0.4,0.1,0.5,0.1c0.2,0,0.3,0,0.5-0.1c0.3-0.2,0.5-0.5,0.6-0.9l0.3-4.2c0-0.2,0-0.3-0.1-0.5c1.2-1.2,1.8-2.2,1.8-2.3
			C85.4,84.4,85.2,83.7,84.6,83.5z M43.9,90l-0.1-1.2c0.3,0.2,0.7,0.4,1.1,0.6L43.9,90z M62.5,94.8c-4.9,0-8.4-2-8.6-3.8
			c5.7,0.1,7.4,1.6,7.6,2.2c0,0,0-0.1,0-0.1l1.1-0.1l1.1,0.1c0,0,0,0,0,0.1c0.2-0.6,1.8-2.1,7.6-2.2C70.9,92.8,67.4,94.8,62.5,94.8z
			 M81.1,90l-1-0.6c0.4-0.2,0.7-0.4,1.1-0.6L81.1,90z"/>
	</g>
</g>
<g id="Calque_2">
</g>
</svg>
