<svg id="Layer_1" data-name="Layer 1" xmlns="http://www.w3.org/2000/svg" viewBox="0 0 125 125"><defs><style>.cls-1{fill:#78c0a8;}.cls-2{fill:#ffd400;}.cls-3{fill:#ffc200;}.cls-4{fill:#ff5b00;}.cls-5{fill:#ff7900;}.cls-6{fill:#33363a;}.cls-7{fill:#e86207;}.cls-8{fill:#f77819;}.cls-9{fill:#ffad40;}.cls-10{fill:#1362a8;}.cls-11{fill:#fff;}</style></defs><title>charmander</title><rect class="cls-1" width="125" height="125" rx="10" ry="10"/><path class="cls-2" d="M48,22.39a13.18,13.18,0,0,0-.51,12.21A13.2,13.2,0,0,0,58.31,15.84,13.18,13.18,0,0,0,48,22.39Z" transform="translate(-0.11 -0.02)"/><path class="cls-3" d="M47.47,34.6A13.2,13.2,0,0,0,58.31,15.84" transform="translate(-0.11 -0.02)"/><path class="cls-4" d="M48.14,25.79A8.9,8.9,0,0,0,47.8,34a8.91,8.91,0,0,0,7.32-12.67A8.9,8.9,0,0,0,48.14,25.79Z" transform="translate(-0.11 -0.02)"/><path class="cls-5" d="M47.8,34a8.91,8.91,0,0,0,7.32-12.67" transform="translate(-0.11 -0.02)"/><path class="cls-6" d="M47.47,35.74a1.14,1.14,0,0,1-1-.65A14.35,14.35,0,0,1,47,21.82h0a14.35,14.35,0,0,1,11.21-7.11,1.14,1.14,0,0,1,1.12.65A14.33,14.33,0,0,1,47.57,35.73h-0.1ZM57.6,17.07A12.08,12.08,0,0,0,49,23h0a12.08,12.08,0,0,0-.79,10.42A12.06,12.06,0,0,0,57.6,17.07Z" transform="translate(-0.11 -0.02)"/><path class="cls-2" d="M54.35,24.46A13.18,13.18,0,0,0,47.8,34.78,13.2,13.2,0,0,0,66.56,23.95,13.19,13.19,0,0,0,54.35,24.46Z" transform="translate(-0.11 -0.02)"/><path class="cls-3" d="M47.8,34.78A13.2,13.2,0,0,0,66.56,23.95" transform="translate(-0.11 -0.02)"/><path class="cls-4" d="M52.78,27.49a8.9,8.9,0,0,0-4.42,7A8.91,8.91,0,0,0,61,27.14,8.9,8.9,0,0,0,52.78,27.49Z" transform="translate(-0.11 -0.02)"/><path class="cls-5" d="M48.36,34.46A8.91,8.91,0,0,0,61,27.14" transform="translate(-0.11 -0.02)"/><path class="cls-6" d="M53.42,37.17a14.37,14.37,0,0,1-6.1-1.36,1.14,1.14,0,0,1-.65-1.12,14.35,14.35,0,0,1,7.11-11.2h0A14.35,14.35,0,0,1,67,22.92,1.14,1.14,0,0,1,67.69,24,14.32,14.32,0,0,1,53.42,37.17ZM49,34.07a12.06,12.06,0,0,0,16.31-9.41,12.08,12.08,0,0,0-10.42.79h0A12.08,12.08,0,0,0,49,34.07Z" transform="translate(-0.11 -0.02)"/><path class="cls-7" d="M66.23,73.45A24.67,24.67,0,0,1,47.83,34.83,24.69,24.69,0,1,0,75.6,72.37,24.59,24.59,0,0,1,66.23,73.45Z" transform="translate(-0.11 -0.02)"/><path class="cls-8" d="M41.77,37.72A24.67,24.67,0,0,0,75.2,72.48,24.67,24.67,0,0,1,47.83,34.83,24.71,24.71,0,0,0,41.77,37.72Z" transform="translate(-0.11 -0.02)"/><path class="cls-6" d="M55.24,84.21q-1,0-2-.08a25.83,25.83,0,0,1-5.77-50.38,1.13,1.13,0,0,1,1.28,1.73A23.55,23.55,0,0,0,66.32,72.32h0a23.42,23.42,0,0,0,8.94-1A1.14,1.14,0,0,1,76.54,73,26,26,0,0,1,55.24,84.21ZM45.15,37.1A23.56,23.56,0,1,0,72.64,74.26,25.81,25.81,0,0,1,45.15,37.1Z" transform="translate(-0.11 -0.02)"/><path class="cls-9" d="M100,79.35c0,15.65-16.67,28.34-37.24,28.34S25.55,95,25.55,79.35s16.67-34.4,37.24-34.4S100,63.7,100,79.35Z" transform="translate(-0.11 -0.02)"/><path class="cls-8" d="M100,79.35c0,15.65-16.67,28.34-37.24,28.34S25.55,95,25.55,79.35,42.22,52.92,62.79,52.92,100,63.7,100,79.35Z" transform="translate(-0.11 -0.02)"/><path class="cls-9" d="M70.69,74.92c0,1.06-3.55,1.24-7.93,1.24s-7.93-.19-7.93-1.24,3.55-3.81,7.93-3.81S70.69,73.87,70.69,74.92Z" transform="translate(-0.11 -0.02)"/><path class="cls-7" d="M100,79.35c0,15.65-16.67,28.34-37.24,28.34S25.55,95,25.55,79.35s4.74,13.88,37.24,13.88S100,63.7,100,79.35Z" transform="translate(-0.11 -0.02)"/><path class="cls-6" d="M62.79,108.83c-21.16,0-38.38-13.22-38.38-29.47,0-16.1,17.12-35.54,38.38-35.54s38.38,19.44,38.38,35.54C101.17,95.6,84,108.83,62.79,108.83Zm0-62.74c-20,0-36.11,18.2-36.11,33.27s16.2,27.2,36.11,27.2S98.9,94.35,98.9,79.35,82.79,46.08,62.79,46.08Z" transform="translate(-0.11 -0.02)"/><path class="cls-10" d="M50.56,68.69a6.09,6.09,0,1,1-6.09-6.09A6.09,6.09,0,0,1,50.56,68.69Z" transform="translate(-0.11 -0.02)"/><circle class="cls-11" cx="41.32" cy="66.69" r="2.48"/><path class="cls-6" d="M44.46,61.46a7.22,7.22,0,0,0-5.92,3.09,3.55,3.55,0,0,0-.24.38A7.22,7.22,0,1,0,44.46,61.46Zm0,12.19a5,5,0,0,1-4.58-3.05,11.58,11.58,0,0,0,1.87-.3,3.57,3.57,0,0,0,.73-0.14,11.07,11.07,0,0,1,2-.2c1.83,0,3.46.62,4.58,0.65A5,5,0,0,1,44.46,73.65Z" transform="translate(-0.11 -0.02)"/><circle class="cls-11" cx="41.32" cy="66.69" r="1.35"/><path class="cls-10" d="M87.21,68.69a6.09,6.09,0,1,1-6.09-6.09A6.09,6.09,0,0,1,87.21,68.69Z" transform="translate(-0.11 -0.02)"/><circle class="cls-11" cx="77.98" cy="66.69" r="2.48"/><path class="cls-6" d="M81.12,61.46a7.22,7.22,0,0,0-5.93,3.1,3.59,3.59,0,0,0-.23.35A7.22,7.22,0,1,0,81.12,61.46Zm0,12.19a5,5,0,0,1-4.58-3.05,11.58,11.58,0,0,0,1.87-.3,3.54,3.54,0,0,0,.74-0.14,11.06,11.06,0,0,1,2-.2c1.83,0,3.46.62,4.58,0.65A5,5,0,0,1,81.12,73.65Z" transform="translate(-0.11 -0.02)"/><path class="cls-11" d="M78.09,65.36a1.35,1.35,0,1,0,1.35,1.35A1.35,1.35,0,0,0,78.09,65.36Z" transform="translate(-0.11 -0.02)"/><path class="cls-6" d="M60.92,81a1.13,1.13,0,0,1-.83-0.36L59,79.46a1.14,1.14,0,1,1,1.65-1.56l1.14,1.2A1.13,1.13,0,0,1,60.92,81Z" transform="translate(-0.11 -0.02)"/><path class="cls-6" d="M64.66,81a1.13,1.13,0,0,1-.82-1.91L65,77.9a1.14,1.14,0,1,1,1.65,1.56l-1.14,1.2A1.13,1.13,0,0,1,64.66,81Z" transform="translate(-0.11 -0.02)"/><polyline class="cls-11" points="45.85 83.61 42.03 85.86 41.76 81.43"/><polyline class="cls-11" points="79.51 83.61 83.33 85.86 83.61 81.43"/><path class="cls-6" d="M86.17,77a1.14,1.14,0,0,0-1.52.52c0,0.05-2.61,5.13-11.32,5.13H73c-6.09-.09-8.89,1.15-10.18,2.35-1.29-1.19-4.1-2.44-10.18-2.35-8.89.16-11.57-4.91-11.68-5.14a1.14,1.14,0,0,0-2,1,9.67,9.67,0,0,0,2,2.47,1.12,1.12,0,0,0-.12.56L41,85.95a1.14,1.14,0,0,0,1.71.91l3.83-2.25a1.13,1.13,0,0,0,.38-0.38,20.34,20.34,0,0,0,5.73.66c6.88-.11,8.82,1.64,9,2.32a0.3,0.3,0,0,1,0-.08L62.79,87,64,87.13a0.3,0.3,0,0,1,0,.08c0.17-.68,2.13-2.45,9-2.32a20.42,20.42,0,0,0,5.73-.66,1.13,1.13,0,0,0,.38.38l3.83,2.25a1.14,1.14,0,0,0,1.71-.91l0.27-4.43A1.12,1.12,0,0,0,84.73,81a9.65,9.65,0,0,0,2-2.47A1.13,1.13,0,0,0,86.17,77Zm-43,7-0.08-1.34c0.38,0.23.79,0.45,1.24,0.65Zm39.27,0-1.15-.68c0.44-.21.86-0.43,1.24-0.65Z" transform="translate(-0.11 -0.02)"/><path class="cls-2" d="M53.41,24.23a13.18,13.18,0,0,1-5.66,10.83,13.2,13.2,0,0,1,0-21.67A13.18,13.18,0,0,1,53.41,24.23Z" transform="translate(-0.11 -0.02)"/><path class="cls-3" d="M47.75,35.07a13.2,13.2,0,0,1,0-21.67" transform="translate(-0.11 -0.02)"/><path class="cls-4" d="M51.57,27.1a8.9,8.9,0,0,1-3.82,7.32,8.91,8.91,0,0,1,0-14.63A8.9,8.9,0,0,1,51.57,27.1Z" transform="translate(-0.11 -0.02)"/><path class="cls-5" d="M47.75,34.42a8.91,8.91,0,0,1,0-14.63" transform="translate(-0.11 -0.02)"/><path class="cls-6" d="M47.75,36.2A1.13,1.13,0,0,1,47.1,36a14.33,14.33,0,0,1,0-23.53,1.14,1.14,0,0,1,1.3,0A14.33,14.33,0,0,1,48.4,36,1.13,1.13,0,0,1,47.75,36.2Zm0-21.38a12.06,12.06,0,0,0,0,18.83A12.06,12.06,0,0,0,47.75,14.82Z" transform="translate(-0.11 -0.02)"/><path class="cls-2" d="M92.87,31.22a13.18,13.18,0,0,1-5.66,10.83,13.2,13.2,0,0,1,0-21.67A13.18,13.18,0,0,1,92.87,31.22Z" transform="translate(-0.11 -0.02)"/><path class="cls-3" d="M87.21,42.06a13.2,13.2,0,0,1,0-21.67" transform="translate(-0.11 -0.02)"/><path class="cls-4" d="M91,34.09a8.9,8.9,0,0,1-3.82,7.32,8.91,8.91,0,0,1,0-14.63A8.9,8.9,0,0,1,91,34.09Z" transform="translate(-0.11 -0.02)"/><path class="cls-5" d="M87.21,41.41a8.91,8.91,0,0,1,0-14.63" transform="translate(-0.11 -0.02)"/><path class="cls-6" d="M87.21,43.19a1.13,1.13,0,0,1-.65-0.2,14.33,14.33,0,0,1,0-23.53,1.14,1.14,0,0,1,1.3,0,14.33,14.33,0,0,1,0,23.53A1.13,1.13,0,0,1,87.21,43.19Zm0-21.38a12.06,12.06,0,0,0,0,18.83A12.06,12.06,0,0,0,87.21,21.81Z" transform="translate(-0.11 -0.02)"/><path class="cls-2" d="M107.75,49.16A13.18,13.18,0,0,1,102.09,60a13.2,13.2,0,0,1,0-21.67A13.18,13.18,0,0,1,107.75,49.16Z" transform="translate(-0.11 -0.02)"/><path class="cls-3" d="M102.09,60a13.2,13.2,0,0,1,0-21.67" transform="translate(-0.11 -0.02)"/><path class="cls-4" d="M105.91,52a8.9,8.9,0,0,1-3.82,7.32,8.91,8.91,0,0,1,0-14.63A8.9,8.9,0,0,1,105.91,52Z" transform="translate(-0.11 -0.02)"/><path class="cls-5" d="M102.09,59.34a8.91,8.91,0,0,1,0-14.63" transform="translate(-0.11 -0.02)"/><path class="cls-6" d="M102.09,61.12a1.13,1.13,0,0,1-.65-0.2,14.33,14.33,0,0,1,0-23.53,1.14,1.14,0,0,1,1.3,0,14.33,14.33,0,0,1,0,23.53A1.13,1.13,0,0,1,102.09,61.12Zm0-21.38a12.06,12.06,0,0,0,0,18.83A12.06,12.06,0,0,0,102.09,39.74Z" transform="translate(-0.11 -0.02)"/></svg>