<svg id="Layer_1" data-name="Layer 1" xmlns="http://www.w3.org/2000/svg" viewBox="0 0 125 125"><defs><style>.cls-1{fill:#fcebb6;}.cls-2{fill:#ffecd2;}.cls-3{fill:#efc99a;}.cls-4{fill:#33363a;}.cls-5{fill:#e5b076;}.cls-6{fill:#d3964c;}.cls-7{fill:#c4833d;}.cls-8{fill:#66310e;}.cls-9{fill:#89410b;}.cls-10{fill:#fff;}</style></defs><title>eevee</title><rect class="cls-1" width="125" height="125" rx="10" ry="10"/><path class="cls-2" d="M96.15,80c0,10.62-15,22.86-33.54,22.86S29.07,90.59,29.07,80s15-19.24,33.54-19.24S96.15,69.34,96.15,80Z" transform="translate(0.15 -0.02)"/><path class="cls-3" d="M96.15,80c0,10.62-15,19.15-33.54,19.15S29.07,90.59,29.07,80s15-19.24,33.54-19.24S96.15,69.34,96.15,80Z" transform="translate(0.15 -0.02)"/><path class="cls-4" d="M62.61,103.81C43.17,103.81,28.08,91,28.08,80S43.57,59.74,62.61,59.74,97.14,68.81,97.14,80,82.05,103.81,62.61,103.81Zm0-42.1C44.65,61.71,30,69.9,30,80c0,9.91,14.52,21.88,32.56,21.88S95.17,89.87,95.17,80C95.17,69.9,80.56,61.71,62.61,61.71Z" transform="translate(0.15 -0.02)"/><path class="cls-5" d="M94.81,72.4c0,13.53-14.42,24.5-32.2,24.5s-32.2-11-32.2-24.5,14.42-29.75,32.2-29.75S94.81,58.87,94.81,72.4Z" transform="translate(0.15 -0.02)"/><path class="cls-6" d="M94.81,72.4c0,13.53-14.42,24.5-32.2,24.5s-32.2-11-32.2-24.5,14.42-22.86,32.2-22.86S94.81,58.87,94.81,72.4Z" transform="translate(0.15 -0.02)"/><path class="cls-5" d="M69.47,75c0,0.91-3.07,1.08-6.86,1.08S55.75,75.9,55.75,75s3.07-3.3,6.86-3.3S69.47,74.08,69.47,75Z" transform="translate(0.15 -0.02)"/><path class="cls-7" d="M94.81,72.4c0,13.53-14.42,24.5-32.2,24.5s-32.2-11-32.2-24.5,4.1,12,32.2,12S94.81,58.87,94.81,72.4Z" transform="translate(0.15 -0.02)"/><path class="cls-4" d="M62.61,97.89c-18.3,0-33.18-11.43-33.18-25.48s14.8-30.73,33.18-30.73S95.79,58.48,95.79,72.4,80.91,97.89,62.61,97.89Zm0-54.25c-17.29,0-31.22,15.74-31.22,28.77s14,23.52,31.22,23.52S93.83,85.37,93.83,72.4,79.9,43.64,62.61,43.64Z" transform="translate(0.15 -0.02)"/><path class="cls-6" d="M34.67,42.57c-0.08,8.06,2.76,14.59,7.2,18.17a34.52,34.52,0,0,0,7.6-21.29c0.08-8.06-2.76-14.6-7.2-18.17A34.53,34.53,0,0,0,34.67,42.57Z" transform="translate(0.15 -0.02)"/><path class="cls-7" d="M42.28,21.29a34.53,34.53,0,0,0-7.6,21.29c-0.08,8.06,2.76,14.59,7.2,18.17Z" transform="translate(0.15 -0.02)"/><path class="cls-4" d="M38.14,57.41a1,1,0,0,1-.84-0.47,26.88,26.88,0,0,1-3.61-14.38,35.35,35.35,0,0,1,7.83-21.91,1,1,0,0,1,1.37-.14c4.89,3.94,7.65,10.84,7.57,18.95a36.27,36.27,0,0,1-3.05,14.09,1,1,0,1,1-1.8-.79A34.29,34.29,0,0,0,48.5,39.45c0.07-7.07-2.14-13.1-6.09-16.76a33.51,33.51,0,0,0-6.75,19.89A24.93,24.93,0,0,0,39,55.92a1,1,0,0,1-.32,1.35A1,1,0,0,1,38.14,57.41Z" transform="translate(0.15 -0.02)"/><path class="cls-8" d="M38.47,46.55c0,3.81,1.3,6.9,3.41,8.59a16.31,16.31,0,0,0,3.59-10.06c0-3.81-1.3-6.9-3.4-8.59A16.32,16.32,0,0,0,38.47,46.55Z" transform="translate(0.15 -0.02)"/><path class="cls-9" d="M42.07,36.49a16.32,16.32,0,0,0-3.59,10.06c0,3.81,1.3,6.9,3.41,8.59Z" transform="translate(0.15 -0.02)"/><path class="cls-4" d="M41.88,56.12a1,1,0,0,1-.62-0.22c-2.44-2-3.81-5.38-3.77-9.36h0a17.24,17.24,0,0,1,3.82-10.68,1,1,0,0,1,1.37-.14c2.44,2,3.81,5.38,3.77,9.37a17.24,17.24,0,0,1-3.82,10.68A1,1,0,0,1,41.88,56.12Zm-3.4-9.57h1a10.54,10.54,0,0,0,2.31,7.12,15.41,15.41,0,0,0,2.73-8.61A10.53,10.53,0,0,0,42.19,38a15.4,15.4,0,0,0-2.73,8.61h-1Z" transform="translate(0.15 -0.02)"/><path class="cls-6" d="M90.54,42.57c0.08,8.06-2.76,14.59-7.2,18.17a34.52,34.52,0,0,1-7.6-21.29c-0.08-8.06,2.76-14.6,7.2-18.17A34.52,34.52,0,0,1,90.54,42.57Z" transform="translate(0.15 -0.02)"/><path class="cls-7" d="M82.94,21.29a34.52,34.52,0,0,1,7.6,21.29c0.08,8.06-2.76,14.59-7.2,18.17Z" transform="translate(0.15 -0.02)"/><path class="cls-4" d="M87.08,57.41a1,1,0,0,1-.51-0.15,1,1,0,0,1-.32-1.35,24.92,24.92,0,0,0,3.31-13.33,33.52,33.52,0,0,0-6.75-19.89c-4,3.65-6.16,9.69-6.09,16.76a34.29,34.29,0,0,0,2.89,13.32,1,1,0,1,1-1.8.79,36.26,36.26,0,0,1-3.05-14.09c-0.08-8.1,2.68-15,7.57-18.95a1,1,0,0,1,1.37.14,35.36,35.36,0,0,1,7.83,21.91,26.87,26.87,0,0,1-3.61,14.38A1,1,0,0,1,87.08,57.41Z" transform="translate(0.15 -0.02)"/><path class="cls-8" d="M86.74,46.55c0,3.81-1.3,6.9-3.41,8.59a16.31,16.31,0,0,1-3.59-10.06c0-3.81,1.3-6.9,3.4-8.59A16.32,16.32,0,0,1,86.74,46.55Z" transform="translate(0.15 -0.02)"/><path class="cls-9" d="M83.15,36.49a16.32,16.32,0,0,1,3.59,10.06c0,3.81-1.3,6.9-3.41,8.59Z" transform="translate(0.15 -0.02)"/><path class="cls-4" d="M83.34,56.12a1,1,0,0,1-.76-0.35,17.24,17.24,0,0,1-3.82-10.68c0-4,1.33-7.4,3.77-9.36a1,1,0,0,1,1.37.14,17.24,17.24,0,0,1,3.82,10.68h0c0,4-1.33,7.4-3.77,9.36A1,1,0,0,1,83.34,56.12ZM83,38a10.53,10.53,0,0,0-2.31,7.12,15.41,15.41,0,0,0,2.73,8.61,10.54,10.54,0,0,0,2.31-7.12A15.4,15.4,0,0,0,83,38Z" transform="translate(0.15 -0.02)"/><path class="cls-4" d="M68.92,82.19a1,1,0,0,0-1,1,1.7,1.7,0,0,1-1.69,1.69h-1a1.7,1.7,0,0,1-1.69-1.69v-1a1,1,0,0,0,0-.14l2-1a1,1,0,0,0-.44-1.86H60a1,1,0,0,0-.44,1.86l2,1a1,1,0,0,0,0,.14v1a1.7,1.7,0,0,1-1.69,1.69H59a1.7,1.7,0,0,1-1.69-1.69,1,1,0,1,0-2,0A3.66,3.66,0,0,0,59,86.83h1a3.65,3.65,0,0,0,2.68-1.17,3.65,3.65,0,0,0,2.68,1.17h1a3.66,3.66,0,0,0,3.66-3.66A1,1,0,0,0,68.92,82.19Z" transform="translate(0.15 -0.02)"/><path class="cls-9" d="M52,75.55a5.27,5.27,0,1,1-5.27-5.27A5.27,5.27,0,0,1,52,75.55Z" transform="translate(0.15 -0.02)"/><circle class="cls-10" cx="44.29" cy="73.82" r="2.15"/><path class="cls-4" d="M46.76,69.3A6.24,6.24,0,0,0,41.63,72a3.19,3.19,0,0,0-.19.29A6.24,6.24,0,1,0,46.76,69.3Zm0,10.54a4.29,4.29,0,0,1-4-2.64,10,10,0,0,0,1.59-.26,3.08,3.08,0,0,0,.68-0.13,9.61,9.61,0,0,1,1.69-.17c1.58,0,3,.53,4,0.56A4.29,4.29,0,0,1,46.76,79.84Z" transform="translate(0.15 -0.02)"/><circle class="cls-10" cx="44.29" cy="73.82" r="1.16"/><path class="cls-9" d="M83.72,75.55a5.27,5.27,0,1,1-5.27-5.27A5.27,5.27,0,0,1,83.72,75.55Z" transform="translate(0.15 -0.02)"/><circle class="cls-10" cx="75.98" cy="73.82" r="2.15"/><path class="cls-4" d="M78.46,69.3A6.24,6.24,0,0,0,73.33,72a3.23,3.23,0,0,0-.19.3A6.24,6.24,0,1,0,78.46,69.3Zm0,10.54a4.29,4.29,0,0,1-4-2.64,10,10,0,0,0,1.62-.26,3.07,3.07,0,0,0,.63-0.12,9.58,9.58,0,0,1,1.71-.18c1.58,0,3,.53,4,0.56A4.29,4.29,0,0,1,78.46,79.84Z" transform="translate(0.15 -0.02)"/><circle class="cls-10" cx="75.98" cy="73.82" r="1.16"/><polygon class="cls-5" points="76.19 49.2 71.8 39.43 67.61 41.32 62.76 36.47 57.91 41.32 53.71 39.43 49.32 49.2 59.09 53.59 59.31 53.11 62.76 56.55 66.2 53.11 66.42 53.59 76.19 49.2"/><polygon class="cls-6" points="67.61 49.5 62.76 44.65 57.91 49.5 53.71 47.62 52.38 50.58 59.09 53.59 59.31 53.11 62.76 56.55 66.2 53.11 66.42 53.59 73.13 50.58 71.8 47.62 67.61 49.5"/><path class="cls-4" d="M76,50.2a1,1,0,0,1-.9-0.58l-4-8.87-3.3,1.48a1,1,0,0,1-1.1-.2l-4.15-4.16L58.45,42a1,1,0,0,1-1.1.2l-3.3-1.48-4,8.87a1,1,0,0,1-1.79-.8l4.39-9.77a1,1,0,0,1,1.3-.49l3.58,1.61,4.37-4.37a1,1,0,0,1,.69-0.29h0a1,1,0,0,1,.69.29l4.37,4.37,3.58-1.61a1,1,0,0,1,.75,0,1,1,0,0,1,.55.52l4.39,9.77A1,1,0,0,1,76,50.2Z" transform="translate(0.15 -0.02)"/></svg>