<svg id="Layer_1" data-name="Layer 1" xmlns="http://www.w3.org/2000/svg" viewBox="0 0 125 125"><defs><style>.cls-1{fill:#519ef2;}.cls-2{fill:#4f4b48;}.cls-3{fill:#33363a;}.cls-4{fill:#efa3cc;}.cls-5{fill:#fbfcf2;}.cls-6{fill:#eae4c5;}.cls-7{fill:#ddd2b1;}.cls-8{fill:#a35616;}.cls-9{fill:#fff;}.cls-10{fill:#ffd039;}.cls-11{fill:#ffb000;}.cls-12{fill:#ea7b1f;}</style></defs><title>meowth</title><rect class="cls-1" width="125" height="125" rx="10" ry="10"/><path class="cls-2" d="M99,33.42A22.68,22.68,0,0,1,80.42,69.48,22.68,22.68,0,0,1,99,33.42Z" transform="translate(0.15 -0.02)"/><path class="cls-3" d="M80.42,69.48A22.68,22.68,0,0,1,99,33.42" transform="translate(0.15 -0.02)"/><path class="cls-3" d="M80.69,70.64H80.41a1.16,1.16,0,0,1-.93-0.48A23.84,23.84,0,0,1,98.77,32.25h0.28a1.16,1.16,0,0,1,.93.48A23.84,23.84,0,0,1,80.69,70.64ZM98.44,34.58A21.52,21.52,0,0,0,81,68.32,21.52,21.52,0,0,0,98.44,34.58Z" transform="translate(0.15 -0.02)"/><path class="cls-4" d="M95.46,41.83A14,14,0,0,1,84,64,14,14,0,0,1,95.46,41.83Z" transform="translate(0.15 -0.02)"/><path class="cls-3" d="M84.17,65.19H84a1.16,1.16,0,0,1-.93-0.48,15.12,15.12,0,0,1,12.23-24h0.18a1.16,1.16,0,0,1,.93.48A15.12,15.12,0,0,1,84.17,65.19ZM94.86,43A12.8,12.8,0,0,0,84.6,62.86,12.8,12.8,0,0,0,94.86,43Z" transform="translate(0.15 -0.02)"/><path class="cls-2" d="M21.24,33.42A22.68,22.68,0,0,0,39.85,69.48,22.68,22.68,0,0,0,21.24,33.42Z" transform="translate(0.15 -0.02)"/><path class="cls-3" d="M39.85,69.48A22.68,22.68,0,0,0,21.24,33.42" transform="translate(0.15 -0.02)"/><path class="cls-3" d="M39.59,70.64A23.84,23.84,0,0,1,20.3,32.73a1.17,1.17,0,0,1,.93-0.48H21.5A23.84,23.84,0,0,1,40.79,70.16a1.17,1.17,0,0,1-.93.48H39.59ZM21.84,34.58A21.52,21.52,0,0,0,39.25,68.32,21.52,21.52,0,0,0,21.84,34.58Z" transform="translate(0.15 -0.02)"/><path class="cls-4" d="M24.82,41.83A14,14,0,0,0,36.28,64,14,14,0,0,0,24.82,41.83Z" transform="translate(0.15 -0.02)"/><path class="cls-3" d="M36.11,65.19a15.12,15.12,0,0,1-12.23-24,1.16,1.16,0,0,1,.93-0.48H25a15.12,15.12,0,0,1,12.23,24,1.16,1.16,0,0,1-.93.48H36.11ZM25.42,43A12.8,12.8,0,0,0,35.67,62.86,12.8,12.8,0,0,0,25.42,43Z" transform="translate(0.15 -0.02)"/><path class="cls-5" d="M98.3,72.44c0,16-17.08,29-38.16,29S22,88.47,22,72.44,39.07,37.19,60.14,37.19,98.3,56.4,98.3,72.44Z" transform="translate(0.15 -0.02)"/><path class="cls-6" d="M98.3,72.44c0,16-17.08,29-38.16,29S22,88.47,22,72.44,39.07,45.36,60.14,45.36,98.3,56.4,98.3,72.44Z" transform="translate(0.15 -0.02)"/><path class="cls-7" d="M98.3,72.44c0,16-17.08,29-38.16,29S22,88.47,22,72.44s4.86,14.22,38.16,14.22S98.3,56.4,98.3,72.44Z" transform="translate(0.15 -0.02)"/><path class="cls-3" d="M60.14,102.63c-21.68,0-39.32-13.55-39.32-30.19C20.82,55.95,38.36,36,60.14,36S99.46,55.95,99.46,72.44C99.46,89.09,81.82,102.63,60.14,102.63Zm0-64.28c-20.49,0-37,18.65-37,34.09s16.6,27.87,37,27.87,37-12.5,37-27.87S80.63,38.35,60.14,38.35Z" transform="translate(0.15 -0.02)"/><path class="cls-8" d="M47.61,70.77a6.24,6.24,0,1,1-6.24-6.24A6.24,6.24,0,0,1,47.61,70.77Z" transform="translate(0.15 -0.02)"/><circle class="cls-9" cx="38.41" cy="68.72" r="2.54"/><path class="cls-3" d="M41.36,63.36a7.4,7.4,0,0,0-6.08,3.18,3.78,3.78,0,0,0-.22.35A7.4,7.4,0,1,0,41.36,63.36Zm0,12.49a5.09,5.09,0,0,1-4.69-3.13,11.89,11.89,0,0,0,1.91-.31,3.61,3.61,0,0,0,.75-0.15,11.33,11.33,0,0,1,2-.21c1.87,0,3.55.63,4.69,0.66A5.09,5.09,0,0,1,41.36,75.84Z" transform="translate(0.15 -0.02)"/><circle class="cls-9" cx="38.41" cy="68.72" r="1.38"/><path class="cls-8" d="M85.16,70.77a6.24,6.24,0,1,1-6.24-6.24A6.24,6.24,0,0,1,85.16,70.77Z" transform="translate(0.15 -0.02)"/><circle class="cls-9" cx="75.96" cy="68.72" r="2.54"/><path class="cls-3" d="M78.91,63.36a7.4,7.4,0,0,0-6.07,3.18,3.57,3.57,0,0,0-.24.37A7.4,7.4,0,1,0,78.91,63.36Zm0,12.49a5.09,5.09,0,0,1-4.69-3.13,11.87,11.87,0,0,0,1.91-.31,3.63,3.63,0,0,0,.75-0.15,11.32,11.32,0,0,1,2-.21c1.87,0,3.54.63,4.69,0.66A5.09,5.09,0,0,1,78.91,75.84Z" transform="translate(0.15 -0.02)"/><circle class="cls-9" cx="75.96" cy="68.72" r="1.38"/><path class="cls-5" d="M72.72,78.32c0,1.08-5.63,1.27-12.58,1.27s-12.59-.19-12.59-1.27,5.64-3.9,12.59-3.9S72.72,77.24,72.72,78.32Z" transform="translate(0.15 -0.02)"/><polyline class="cls-6" points="92.47 78.67 107.92 66.74 90.11 71.84"/><path class="cls-3" d="M92.32,79.85a1.16,1.16,0,0,1-.71-2.08l10.65-8.22L90.28,73a1.16,1.16,0,0,1-.64-2.24l17.81-5.1a1.16,1.16,0,0,1,1,2L93,79.61A1.16,1.16,0,0,1,92.32,79.85Z" transform="translate(0.15 -0.02)"/><polyline class="cls-6" points="28.11 78.67 12.65 66.74 30.47 71.84"/><path class="cls-3" d="M28,79.85a1.15,1.15,0,0,1-.71-0.24L11.79,67.68a1.16,1.16,0,0,1,1-2l17.81,5.1A1.16,1.16,0,0,1,30,73L18,69.55l10.65,8.22A1.16,1.16,0,0,1,28,79.85Z" transform="translate(0.15 -0.02)"/><polyline class="cls-7" points="92.9 78.71 108.56 90.8 90.51 85.63"/><path class="cls-3" d="M108.42,92a1.17,1.17,0,0,1-.32,0L90,86.77a1.16,1.16,0,1,1,.64-2.24L102.9,88,92,79.65a1.16,1.16,0,1,1,1.42-1.84L109.13,89.9A1.16,1.16,0,0,1,108.42,92Z" transform="translate(0.15 -0.02)"/><polyline class="cls-7" points="27.67 78.71 12.01 90.8 30.06 85.63"/><path class="cls-3" d="M11.86,92a1.16,1.16,0,0,1-.71-2.08L26.81,77.81a1.16,1.16,0,0,1,1.42,1.84L17.38,88l12.21-3.5a1.16,1.16,0,0,1,.64,2.24L12.18,91.93A1.12,1.12,0,0,1,11.86,92Z" transform="translate(0.15 -0.02)"/><polyline class="cls-6" points="79.39 46.93 79.88 27.41 72.6 44.45"/><path class="cls-3" d="M79.24,48.11h0a1.16,1.16,0,0,1-1.13-1.19l0.34-13.44-4.9,11.46A1.16,1.16,0,0,1,71.38,44l7.28-17a1.16,1.16,0,0,1,2.23.49L80.4,47A1.16,1.16,0,0,1,79.24,48.11Z" transform="translate(0.15 -0.02)"/><polyline class="cls-6" points="41.19 46.93 40.69 27.41 47.98 44.45"/><path class="cls-3" d="M41,48.11A1.16,1.16,0,0,1,39.88,47L39.38,27.46A1.16,1.16,0,0,1,41.62,27L48.9,44a1.16,1.16,0,0,1-2.14.91l-4.9-11.46L42.2,46.92a1.16,1.16,0,0,1-1.13,1.19h0Z" transform="translate(0.15 -0.02)"/><path class="cls-10" d="M72.18,50.67A10.19,10.19,0,0,1,62,60.86h-3.7A10.19,10.19,0,0,1,48.09,50.67V32.83A10.19,10.19,0,0,1,58.29,22.64H62A10.19,10.19,0,0,1,72.18,32.83V50.67Z" transform="translate(0.15 -0.02)"/><path class="cls-11" d="M62,28.54h-3.7A10.19,10.19,0,0,0,48.09,38.73V50.67A10.19,10.19,0,0,0,58.29,60.86H62A10.19,10.19,0,0,0,72.18,50.67V38.73A10.19,10.19,0,0,0,62,28.54Z" transform="translate(0.15 -0.02)"/><path class="cls-12" d="M71.26,33.22A1.28,1.28,0,0,1,70,34.5H49.41a1.28,1.28,0,0,1-1.28-1.28h0a1.28,1.28,0,0,1,1.28-1.28H70a1.28,1.28,0,0,1,1.28,1.28h0Z" transform="translate(0.15 -0.02)"/><path class="cls-12" d="M71.26,40A1.28,1.28,0,0,1,70,41.24H49.41A1.28,1.28,0,0,1,48.14,40h0a1.28,1.28,0,0,1,1.28-1.28H70A1.28,1.28,0,0,1,71.26,40h0Z" transform="translate(0.15 -0.02)"/><path class="cls-12" d="M71.26,47.35A1.28,1.28,0,0,1,70,48.63H49.41a1.28,1.28,0,0,1-1.28-1.28h0a1.28,1.28,0,0,1,1.28-1.28H70a1.28,1.28,0,0,1,1.28,1.28h0Z" transform="translate(0.15 -0.02)"/><path class="cls-12" d="M71.26,54.74A1.28,1.28,0,0,1,70,56H49.41a1.28,1.28,0,0,1-1.28-1.28h0a1.28,1.28,0,0,1,1.28-1.28H70a1.28,1.28,0,0,1,1.28,1.28h0Z" transform="translate(0.15 -0.02)"/><path class="cls-3" d="M62,62h-3.7A11.37,11.37,0,0,1,46.93,50.67V32.83A11.37,11.37,0,0,1,58.29,21.48H62A11.37,11.37,0,0,1,73.35,32.83V50.67A11.37,11.37,0,0,1,62,62ZM58.29,23.8a9,9,0,0,0-9,9V50.67a9,9,0,0,0,9,9H62a9,9,0,0,0,9-9V32.83a9,9,0,0,0-9-9h-3.7Z" transform="translate(0.15 -0.02)"/><path class="cls-3" d="M53.31,32.46H52.57a1.16,1.16,0,1,1,0-2.33h0.74A1.16,1.16,0,0,1,53.31,32.46Z" transform="translate(0.15 -0.02)"/><path class="cls-3" d="M67.71,32.46H67a1.16,1.16,0,1,1,0-2.33h0.74A1.16,1.16,0,1,1,67.71,32.46Z" transform="translate(0.15 -0.02)"/><path class="cls-3" d="M63.37,32.46H56.91a1.16,1.16,0,1,1,0-2.33h6.46A1.16,1.16,0,0,1,63.37,32.46Z" transform="translate(0.15 -0.02)"/><path class="cls-3" d="M53.31,39.85H52.57a1.16,1.16,0,1,1,0-2.33h0.74A1.16,1.16,0,0,1,53.31,39.85Z" transform="translate(0.15 -0.02)"/><path class="cls-3" d="M67.71,39.85H67a1.16,1.16,0,1,1,0-2.33h0.74A1.16,1.16,0,1,1,67.71,39.85Z" transform="translate(0.15 -0.02)"/><path class="cls-3" d="M63.37,39.85H56.91a1.16,1.16,0,1,1,0-2.33h6.46A1.16,1.16,0,0,1,63.37,39.85Z" transform="translate(0.15 -0.02)"/><path class="cls-3" d="M53.31,47.24H52.57a1.16,1.16,0,1,1,0-2.33h0.74A1.16,1.16,0,0,1,53.31,47.24Z" transform="translate(0.15 -0.02)"/><path class="cls-3" d="M67.71,47.24H67a1.16,1.16,0,1,1,0-2.33h0.74A1.16,1.16,0,1,1,67.71,47.24Z" transform="translate(0.15 -0.02)"/><path class="cls-3" d="M63.37,47.24H56.91a1.16,1.16,0,1,1,0-2.33h6.46A1.16,1.16,0,0,1,63.37,47.24Z" transform="translate(0.15 -0.02)"/><path class="cls-3" d="M53.31,54.62H52.57a1.16,1.16,0,1,1,0-2.33h0.74A1.16,1.16,0,0,1,53.31,54.62Z" transform="translate(0.15 -0.02)"/><path class="cls-3" d="M67.71,54.62H67a1.16,1.16,0,1,1,0-2.33h0.74A1.16,1.16,0,0,1,67.71,54.62Z" transform="translate(0.15 -0.02)"/><path class="cls-3" d="M63.37,54.62H56.91a1.16,1.16,0,1,1,0-2.33h6.46A1.16,1.16,0,0,1,63.37,54.62Z" transform="translate(0.15 -0.02)"/><path class="cls-3" d="M76.33,79.63a1.16,1.16,0,1,0,0,2.33,1.55,1.55,0,1,1,0,3.1H44A1.55,1.55,0,1,1,44,82a1.16,1.16,0,1,0,0-2.33,3.88,3.88,0,1,0,0,7.75h0.87v1.29a1.16,1.16,0,1,0,2.33,0V87.38h26v1.29a1.16,1.16,0,0,0,2.33,0V87.38h0.87A3.88,3.88,0,0,0,76.33,79.63Z" transform="translate(0.15 -0.02)"/></svg>