<svg id="Layer_1" data-name="Layer 1" xmlns="http://www.w3.org/2000/svg" viewBox="0 0 125 125"><defs><style>.cls-1{fill:#164f5d;}.cls-2{fill:#ffd400;}.cls-3{fill:#ffb000;}.cls-4{fill:#33363a;}.cls-5{fill:#fff800;}.cls-6{fill:#ff1a1a;}.cls-7{fill:#d61d1d;}.cls-8{fill:#6d5c4d;}.cls-9{fill:#fff;}</style></defs><title>pikachu</title><rect class="cls-1" width="125" height="125" rx="10" ry="10"/><polygon class="cls-2" points="81.53 20.87 63.07 20.87 52.9 38.73 61.16 38.73 50.32 60.76 78.81 35.26 69.56 35.26 81.53 20.87"/><polygon class="cls-3" points="59.54 27.06 52.9 38.73 61.16 38.73 50.32 60.76 71.9 41.45 64.7 41.45 69.85 35.26 69.56 35.26 76.38 27.06 59.54 27.06"/><path class="cls-4" d="M50.17,61.84a1.06,1.06,0,0,1-1-1.54L59.3,39.81H52.75a1.07,1.07,0,0,1-.93-1.59L62,20.37a1.07,1.07,0,0,1,.93-0.54H81.38a1.07,1.07,0,0,1,.82,1.75L71.68,34.21h7a1.07,1.07,0,0,1,.71,1.86l-28.5,25.5A1.06,1.06,0,0,1,50.17,61.84Zm4.41-24.16H61a1.06,1.06,0,0,1,1,1.54L53.55,56.32l22.33-20H69.41a1.07,1.07,0,0,1-.82-1.75L79.11,22H63.54Z" transform="translate(0.15 -0.02)"/><path class="cls-5" d="M97.3,76.63c0,14.68-15.65,26.59-34.94,26.59S27.41,91.31,27.41,76.63,43.05,44.35,62.35,44.35,97.3,61.94,97.3,76.63Z" transform="translate(0.15 -0.02)"/><path class="cls-2" d="M97.3,76.63c0,14.68-15.65,26.59-34.94,26.59S27.41,91.31,27.41,76.63s15.64-24.8,34.94-24.8S97.3,61.94,97.3,76.63Z" transform="translate(0.15 -0.02)"/><path class="cls-5" d="M69.79,69.67c0,1-3.33,1.17-7.44,1.17s-7.44-.18-7.44-1.17,3.33-3.58,7.44-3.58S69.79,68.68,69.79,69.67Z" transform="translate(0.15 -0.02)"/><path class="cls-3" d="M97.3,76.63c0,14.68-15.65,26.59-34.94,26.59S27.41,91.31,27.41,76.63s4.45,13,34.94,13S97.3,61.94,97.3,76.63Z" transform="translate(0.15 -0.02)"/><path class="cls-4" d="M62.35,104.28c-19.86,0-36-12.4-36-27.65s16.06-33.35,36-33.35,36,18.24,36,33.35S82.21,104.28,62.35,104.28Zm0-58.87c-18.77,0-33.88,17.08-33.88,31.22s15.2,25.52,33.88,25.52S96.23,90.7,96.23,76.63,81.12,45.41,62.35,45.41Z" transform="translate(0.15 -0.02)"/><path class="cls-2" d="M23.51,50.25C28,57.74,34.4,62.14,40.55,62.9a37.46,37.46,0,0,0-5.15-24c-4.53-7.49-10.89-11.89-17-12.65A37.46,37.46,0,0,0,23.51,50.25Z" transform="translate(0.15 -0.02)"/><path class="cls-3" d="M18.36,26.27a37.46,37.46,0,0,0,5.15,24C28,57.74,34.4,62.14,40.55,62.9Z" transform="translate(0.15 -0.02)"/><path class="cls-4" d="M41.54,53.11A39.36,39.36,0,0,0,36.3,38.37c-4.56-7.52-11-12.32-17.81-13.15a1.06,1.06,0,0,0-1.19.91,38.36,38.36,0,0,0,5.3,24.68A29.15,29.15,0,0,0,34.15,62a1.07,1.07,0,1,0,1-1.9A27,27,0,0,1,24.43,49.7a36.8,36.8,0,0,1-3.24-6.9c4.33-.71,9.34,1.5,8.74-9.22a31.7,31.7,0,0,1,4.55,5.89,37.2,37.2,0,0,1,5,13.94A1.07,1.07,0,0,0,41.54,53.11Z" transform="translate(0.15 -0.02)"/><path class="cls-2" d="M101.19,50.25c-4.53,7.49-10.89,11.89-17,12.65a37.45,37.45,0,0,1,5.15-24c4.53-7.49,10.89-11.89,17-12.65A37.46,37.46,0,0,1,101.19,50.25Z" transform="translate(0.15 -0.02)"/><path class="cls-3" d="M106.35,26.27a37.46,37.46,0,0,1-5.15,24c-4.53,7.49-10.89,11.89-17,12.65Z" transform="translate(0.15 -0.02)"/><path class="cls-4" d="M107.4,26.13a1.06,1.06,0,0,0-1.19-.91C99.45,26.05,93,30.84,88.4,38.37a39.35,39.35,0,0,0-5.24,14.74,1.07,1.07,0,0,0,2.11.3,37.19,37.19,0,0,1,5-13.94,31.7,31.7,0,0,1,4.55-5.89c-0.6,10.73,4.41,8.51,8.74,9.22a36.8,36.8,0,0,1-3.24,6.9A27,27,0,0,1,89.6,60.11a1.07,1.07,0,1,0,1,1.9,29.16,29.16,0,0,0,11.55-11.2A38.36,38.36,0,0,0,107.4,26.13Z" transform="translate(0.15 -0.02)"/><circle class="cls-6" cx="40.49" cy="79" r="4.98"/><path class="cls-7" d="M45.32,79a5,5,0,0,1-10,0" transform="translate(0.15 -0.02)"/><circle class="cls-6" cx="84.51" cy="79" r="4.98"/><path class="cls-7" d="M89.35,79a5,5,0,0,1-10,0" transform="translate(0.15 -0.02)"/><path class="cls-4" d="M69.2,73.69a1.07,1.07,0,0,0-1.07,1.07,1.84,1.84,0,0,1-1.84,1.84h-1a1.84,1.84,0,0,1-1.84-1.84v-1a1.06,1.06,0,0,0,0-.15l2.21-1.1a1.07,1.07,0,0,0-.48-2H59.57a1.07,1.07,0,0,0-.48,2l2.21,1.1a1.06,1.06,0,0,0,0,.15v1a1.84,1.84,0,0,1-1.84,1.84h-1a1.84,1.84,0,0,1-1.84-1.84,1.07,1.07,0,0,0-2.13,0,4,4,0,0,0,4,4h1a4,4,0,0,0,2.9-1.27,4,4,0,0,0,2.91,1.27h1a4,4,0,0,0,4-4A1.07,1.07,0,0,0,69.2,73.69Z" transform="translate(0.15 -0.02)"/><path class="cls-8" d="M50.88,66.5a5.72,5.72,0,1,1-5.72-5.72A5.72,5.72,0,0,1,50.88,66.5Z" transform="translate(0.15 -0.02)"/><circle class="cls-9" cx="42.46" cy="64.62" r="2.33"/><path class="cls-4" d="M45.16,59.71a6.78,6.78,0,0,0-5.57,2.92,3.44,3.44,0,0,0-.2.32A6.78,6.78,0,1,0,45.16,59.71Zm0,11.44a4.66,4.66,0,0,1-4.29-2.87A10.88,10.88,0,0,0,42.6,68a3.36,3.36,0,0,0,.73-0.14,10.35,10.35,0,0,1,1.83-.18c1.71,0,3.25.58,4.3,0.61A4.66,4.66,0,0,1,45.16,71.15Z" transform="translate(0.15 -0.02)"/><circle class="cls-9" cx="42.46" cy="64.62" r="1.26"/><path class="cls-8" d="M85.26,66.5a5.72,5.72,0,1,1-5.72-5.72A5.72,5.72,0,0,1,85.26,66.5Z" transform="translate(0.15 -0.02)"/><circle class="cls-9" cx="76.85" cy="64.62" r="2.33"/><path class="cls-4" d="M79.55,59.71A6.78,6.78,0,0,0,74,62.63a3.47,3.47,0,0,0-.21.32A6.77,6.77,0,1,0,79.55,59.71Zm0,11.44a4.66,4.66,0,0,1-4.29-2.87A11,11,0,0,0,77,68a3.35,3.35,0,0,0,.69-0.13,10.37,10.37,0,0,1,1.85-.19c1.71,0,3.25.58,4.29,0.61A4.66,4.66,0,0,1,79.55,71.15Z" transform="translate(0.15 -0.02)"/><circle class="cls-9" cx="76.85" cy="64.62" r="1.26"/></svg>