<svg id="Layer_1" data-name="Layer 1" xmlns="http://www.w3.org/2000/svg" viewBox="0 0 125 125"><defs><style>.cls-1{fill:#f0a830;}.cls-2{fill:#0d5c9e;}.cls-3{fill:#009be8;}.cls-4{fill:#33363a;}.cls-5{fill:#063b66;}.cls-6{fill:#f4d7b8;}.cls-7{fill:#fce6c8;}.cls-8{fill:#eac79d;}</style></defs><title>snorlax</title><rect class="cls-1" width="125" height="125" rx="10" ry="10"/><path class="cls-2" d="M24.68,25.77a24.49,24.49,0,0,0,20.1,38.94A24.49,24.49,0,0,0,24.68,25.77Z" transform="translate(-0.15 -0.15)"/><path class="cls-3" d="M44.78,64.71a24.49,24.49,0,0,0-20.1-38.94" transform="translate(-0.15 -0.15)"/><path class="cls-4" d="M44.5,65.84A25.61,25.61,0,0,1,23.77,25.11a1.13,1.13,0,0,1,.9-0.46H25A25.61,25.61,0,0,1,45.69,65.37a1.12,1.12,0,0,1-.9.46H44.5ZM25.26,26.9A23.36,23.36,0,0,0,44.2,63.59,23.36,23.36,0,0,0,25.26,26.9Z" transform="translate(-0.15 -0.15)"/><path class="cls-2" d="M103,25.77a24.49,24.49,0,0,1-20.1,38.94A24.49,24.49,0,0,1,103,25.77Z" transform="translate(-0.15 -0.15)"/><path class="cls-3" d="M82.87,64.71A24.49,24.49,0,0,1,103,25.77" transform="translate(-0.15 -0.15)"/><path class="cls-4" d="M83.15,65.84H82.85a1.12,1.12,0,0,1-.9-0.46,25.61,25.61,0,0,1,20.72-40.72H103a1.13,1.13,0,0,1,.9.46A25.61,25.61,0,0,1,83.15,65.84ZM102.39,26.9A23.36,23.36,0,0,0,83.45,63.59,23.36,23.36,0,0,0,102.39,26.9Z" transform="translate(-0.15 -0.15)"/><path class="cls-3" d="M110.52,65.95c0,19.62-20.91,35.53-46.7,35.53s-46.7-15.91-46.7-35.53S38,22.81,63.82,22.81,110.52,46.33,110.52,65.95Z" transform="translate(-0.15 -0.15)"/><path class="cls-2" d="M110.52,65.95c0,19.62-20.91,35.53-46.7,35.53s-46.7-15.91-46.7-35.53S38,32.81,63.82,32.81,110.52,46.33,110.52,65.95Z" transform="translate(-0.15 -0.15)"/><path class="cls-5" d="M110.52,65.95c0,19.62-20.91,35.53-46.7,35.53s-46.7-15.91-46.7-35.53,5.94,17.4,46.7,17.4S110.52,46.33,110.52,65.95Z" transform="translate(-0.15 -0.15)"/><path class="cls-6" d="M77.4,43.23L63.82,56.81,50.24,43.23C33,45.89,20.59,54,20.59,68.58c0,18.17,19.36,32.9,43.23,32.9s43.23-14.73,43.23-32.9C107.06,54,94.63,45.89,77.4,43.23Z" transform="translate(-0.15 -0.15)"/><path class="cls-7" d="M94.13,48.46A52.08,52.08,0,0,0,77.4,43.23L63.82,56.81,50.24,43.23a52.1,52.1,0,0,0-16.73,5.24c7.8,5.84,18.5,9.44,30.31,9.44S86.33,54.3,94.13,48.46Z" transform="translate(-0.15 -0.15)"/><path class="cls-8" d="M107.06,68.58a22.69,22.69,0,0,0-.69-5.62C101,69.1,89.11,83.35,63.82,83.35S26.66,69.1,21.28,63a22.66,22.66,0,0,0-.69,5.62c0,17.6,18.17,32,41,32.85,0.74,0,1.48,0,2.23,0s1.49,0,2.23,0C88.89,100.55,107.06,86.18,107.06,68.58Z" transform="translate(-0.15 -0.15)"/><path class="cls-4" d="M63.82,102.6c-24.46,0-44.36-15.26-44.36-34,0-14,10.87-23.42,30.61-26.47a1.13,1.13,0,0,1,1,.32L63.82,55.22,76.61,42.43a1.12,1.12,0,0,1,1-.32c19.74,3.05,30.61,12.45,30.61,26.47C108.18,87.34,88.28,102.6,63.82,102.6Zm-14-58.18c-10.77,1.76-28.14,7.22-28.14,24.15,0,17.52,18.89,31.77,42.11,31.77s42.11-14.25,42.11-31.77c0-16.94-17.37-22.4-28.14-24.16L64.62,57.6a1.16,1.16,0,0,1-1.59,0Z" transform="translate(-0.15 -0.15)"/><path class="cls-4" d="M63.82,102.6C37.46,102.6,16,86.16,16,65.95c0-20,21.33-44.26,47.82-44.26s47.82,24.21,47.82,44.26C111.64,86.16,90.19,102.6,63.82,102.6Zm0-78.67c-25.24,0-45.57,23-45.57,42s20.44,34.4,45.57,34.4,45.57-15.43,45.57-34.4S89.07,23.94,63.82,23.94Z" transform="translate(-0.15 -0.15)"/><path class="cls-7" d="M73.13,75.83c0,2-4.17.86-9.31,0.86s-9.31,1.1-9.31-.86,4.17-3.55,9.31-3.55S73.13,73.87,73.13,75.83Z" transform="translate(-0.15 -0.15)"/><path class="cls-4" d="M56.2,69.3a1.13,1.13,0,0,1-1.06-.75,6.31,6.31,0,0,0-4.54-4.18,12.45,12.45,0,0,0-7.24.57,1.13,1.13,0,0,1-.76-2.12,14.7,14.7,0,0,1,8.58-.62,8.55,8.55,0,0,1,6.08,5.59,1.13,1.13,0,0,1-.68,1.44A1.14,1.14,0,0,1,56.2,69.3Z" transform="translate(-0.15 -0.15)"/><path class="cls-4" d="M71.44,69.3a1.11,1.11,0,0,1-.38-0.07,1.13,1.13,0,0,1-.68-1.44,8.55,8.55,0,0,1,6.08-5.59,14.72,14.72,0,0,1,8.58.62,1.13,1.13,0,0,1-.76,2.12A12.45,12.45,0,0,0,77,64.37a6.31,6.31,0,0,0-4.54,4.18A1.13,1.13,0,0,1,71.44,69.3Z" transform="translate(-0.15 -0.15)"/><path class="cls-4" d="M79.46,75.17a1.12,1.12,0,0,0-.3-0.1l-2.64-.45a1.11,1.11,0,0,0-.84.19,1.13,1.13,0,0,0-.46.73L74.8,78.1a40.09,40.09,0,0,1-11,1.32,40.12,40.12,0,0,1-11-1.32l-0.44-2.55a1.12,1.12,0,0,0-1.3-.92l-2.64.45a1.1,1.1,0,0,0-.3.1,1.12,1.12,0,0,0-1,1.11c0,3.7,8.6,5.38,16.6,5.38s16.6-1.68,16.6-5.38A1.12,1.12,0,0,0,79.46,75.17Zm-29.05,2-0.16-.1,0.14,0ZM77.26,77l0.14,0-0.16.1Z" transform="translate(-0.15 -0.15)"/></svg>