<svg id="Layer_1" data-name="Layer 1" xmlns="http://www.w3.org/2000/svg" viewBox="0 0 125 125"><defs><style>.cls-1{fill:#f07818;}.cls-2{fill:#93f9ea;}.cls-3{fill:#70d3e0;}.cls-4{fill:#33363a;}.cls-5{fill:#7fe5d8;}.cls-6{fill:#893015;}.cls-7{fill:#fff;}</style></defs><title>squirtle</title><rect class="cls-1" width="125" height="125" rx="10" ry="10"/><path class="cls-2" d="M90.57,31.23h0A22.65,22.65,0,1,0,59.13,56.83,22.61,22.61,0,0,1,63.31,38,14.08,14.08,0,1,0,90.57,31.23Z" transform="translate(-0.15 -0.15)"/><path class="cls-3" d="M58.58,51.87A22.53,22.53,0,0,1,63.31,38a14.08,14.08,0,0,0,27.62.51c-0.1-.47-0.22-0.93-0.36-1.38h0a22.65,22.65,0,0,0-44.55,2A22.65,22.65,0,0,0,58.63,56.58q0-.86.16-1.71A22.63,22.63,0,0,1,58.58,51.87Z" transform="translate(-0.15 -0.15)"/><path class="cls-4" d="M91.73,31h0A23.83,23.83,0,1,0,58.64,57.9a1.18,1.18,0,0,0,1.64-1.33,21.6,21.6,0,0,1-.52-4.7,21.23,21.23,0,0,1,3.07-11.07A15.26,15.26,0,0,0,91.73,31ZM77.17,48.47a12.87,12.87,0,0,1-12.09-8.41A1.17,1.17,0,0,0,65,39.47a10,10,0,0,1,5.75-12.88,7.74,7.74,0,0,1,10,4.47,6,6,0,0,1-3.44,7.69,4.53,4.53,0,0,1-5.85-2.61,3.39,3.39,0,0,1,2-4.38,1.18,1.18,0,0,0-.84-2.21A5.76,5.76,0,0,0,69.27,37a6.89,6.89,0,0,0,8.9,4A8.32,8.32,0,0,0,83,30.22a10.1,10.1,0,0,0-13-5.83,12.35,12.35,0,0,0-7.79,13.27,23.71,23.71,0,0,0-4.56,17A21.47,21.47,0,1,1,89.4,31.38a1.19,1.19,0,0,0,0,.21A12.9,12.9,0,0,1,77.17,48.47Z" transform="translate(-0.15 -0.15)"/><path class="cls-2" d="M103.1,82.29c0,16.28-17.34,29.47-38.74,29.47S25.63,98.57,25.63,82.29,43,46.51,64.36,46.51,103.1,66,103.1,82.29Z" transform="translate(-0.15 -0.15)"/><path class="cls-5" d="M103.1,82.29c0,16.28-17.34,29.47-38.74,29.47S25.63,98.57,25.63,82.29,43,54.8,64.36,54.8,103.1,66,103.1,82.29Z" transform="translate(-0.15 -0.15)"/><path class="cls-2" d="M72.64,93.36c0,1.1-3.69,1.29-8.25,1.29s-8.25-.2-8.25-1.29,3.69-4,8.25-4S72.64,92.26,72.64,93.36Z" transform="translate(-0.15 -0.15)"/><path class="cls-3" d="M103.1,82.29c0,16.28-17.34,29.47-38.74,29.47S25.63,98.57,25.63,82.29s4.93,14.44,38.74,14.44S103.1,66,103.1,82.29Z" transform="translate(-0.15 -0.15)"/><path class="cls-4" d="M64.36,112.95c-22,0-39.92-13.75-39.92-30.65,0-16.74,17.8-37,39.92-37s39.92,20.22,39.92,37C104.28,99.2,86.37,112.95,64.36,112.95Zm0-65.26c-20.8,0-37.55,18.93-37.55,34.6s16.85,28.29,37.55,28.29,37.55-12.69,37.55-28.29S85.16,47.69,64.36,47.69Z" transform="translate(-0.15 -0.15)"/><path class="cls-6" d="M51.64,86.94a6.34,6.34,0,1,1-6.34-6.34A6.34,6.34,0,0,1,51.64,86.94Z" transform="translate(-0.15 -0.15)"/><circle class="cls-7" cx="42" cy="84.73" r="2.58"/><path class="cls-4" d="M45.3,79.43a7.51,7.51,0,0,0-6.16,3.22,3.72,3.72,0,0,0-.25.39A7.51,7.51,0,1,0,45.3,79.43Zm0,12.67a5.16,5.16,0,0,1-4.76-3.18,12.06,12.06,0,0,0,1.94-.31,3.68,3.68,0,0,0,.77-0.15,11.5,11.5,0,0,1,2.05-.21c1.9,0,3.6.64,4.76,0.67A5.17,5.17,0,0,1,45.3,92.1Z" transform="translate(-0.15 -0.15)"/><circle class="cls-7" cx="42" cy="84.73" r="1.4"/><path class="cls-6" d="M89.76,86.94a6.34,6.34,0,1,1-6.34-6.34A6.34,6.34,0,0,1,89.76,86.94Z" transform="translate(-0.15 -0.15)"/><circle class="cls-7" cx="80.12" cy="84.73" r="2.58"/><path class="cls-4" d="M83.42,79.43a7.51,7.51,0,0,0-6.16,3.22A3.63,3.63,0,0,0,77,83,7.51,7.51,0,1,0,83.42,79.43Zm0,12.67a5.16,5.16,0,0,1-4.76-3.18,12,12,0,0,0,1.94-.31,3.68,3.68,0,0,0,.77-0.15,11.49,11.49,0,0,1,2.05-.21c1.9,0,3.6.64,4.76,0.67A5.16,5.16,0,0,1,83.42,92.1Z" transform="translate(-0.15 -0.15)"/><circle class="cls-7" cx="80.12" cy="84.73" r="1.4"/><path class="cls-4" d="M88.68,95.56a1.18,1.18,0,0,0-1.58.54c0,0.06-2.8,5.49-12.15,5.34H74.27c-5.85,0-8.61,1.25-9.9,2.44-1.34-1.25-4.26-2.55-10.59-2.44H53.4c-8.95,0-11.65-5.11-11.77-5.35a1.18,1.18,0,0,0-2.12,1c0.14,0.28,3.38,6.66,13.89,6.66h0.42c7.14-.13,9.18,1.7,9.35,2.41a0.29,0.29,0,0,1,0-.08l1.21-.11,1.21,0.11a0.3,0.3,0,0,1,0,.08c0.18-.71,2.17-2.53,9.36-2.41,10.81,0.18,14.17-6.38,14.31-6.66A1.18,1.18,0,0,0,88.68,95.56Z" transform="translate(-0.15 -0.15)"/><path class="cls-4" d="M62.42,99.77a1.18,1.18,0,0,1-.86-0.37l-1.18-1.25a1.18,1.18,0,0,1,1.72-1.62l1.18,1.25A1.18,1.18,0,0,1,62.42,99.77Z" transform="translate(-0.15 -0.15)"/><path class="cls-4" d="M66.3,99.77a1.18,1.18,0,0,1-.86-2l1.18-1.25a1.18,1.18,0,1,1,1.72,1.62L67.16,99.4A1.18,1.18,0,0,1,66.3,99.77Z" transform="translate(-0.15 -0.15)"/><path class="cls-4" d="M52.66,77.66A1.17,1.17,0,0,1,52,77.49l-3.68-2.23a1.18,1.18,0,1,1,1.22-2l3.68,2.23A1.18,1.18,0,0,1,52.66,77.66Z" transform="translate(-0.15 -0.15)"/><path class="cls-4" d="M76.06,77.66a1.18,1.18,0,0,1-.61-2.19l3.68-2.23a1.18,1.18,0,1,1,1.22,2l-3.68,2.23A1.17,1.17,0,0,1,76.06,77.66Z" transform="translate(-0.15 -0.15)"/></svg>